<svg xmlns="http://www.w3.org/2000/svg" width="256" height="256"><path d="m103.938-.437 2.59-.122C109 0 109 0 111.3 1.883c2.45 4.494 2.132 8.409 1.949 13.43L113 25h30c-.158-6.358-.158-6.358-.36-12.714-.052-4.154.035-6.692 2.063-10.395 3.391-2.792 5.716-2.53 9.95-2.325C157 0 157 0 159.562 1.875c2.15 3.18 2.559 4.891 2.535 8.695l-.01 2.715-.025 2.84-.014 2.863Q162.03 22.495 162 26l2.734.305c3.45.734 4.872 1.57 7.516 3.82l2.352 1.89a232 232 0 0 1 4.671 3.97c6.286 5.053 11.47 5.757 19.309 5.652 4.04.43 5.574 1.53 8.418 4.363 1.373 2.746 1.124 4.959 1 8l-1 3 2.75 2.188c3.732 3.114 6.69 6.13 8.25 10.812.069 1.895.085 3.792.063 5.688l-.028 3.011L218 81l3.324-.176q2.182-.07 4.363-.136l2.186-.127c4.081-.094 5.664.086 9.022 2.646 3.425 4.544 4.354 8.166 4.38 13.82l.03 3.667.001 3.997.026 4.23c.022 3.822.03 7.644.035 11.466q.006 3.585.017 7.168.037 12.508.042 25.016a4736 4736 0 0 0 .075 23.304q.051 10.012.05 20.023c.002 3.984.01 7.968.039 11.952q.037 5.62.012 11.241c-.003 2.027.02 4.053.042 6.08-.08 9.93-.08 9.93-2.994 13.63-3.677 3.051-6.213 3.322-10.838 3.262l-2.73-.028L223 242l.375 2.688c-.375 3.312-.375 3.312-2.75 6-6.854 5.01-15.322 5.77-23.55 5.71l-2.757.01q-2.865.002-5.73-.017c-2.883-.016-5.765 0-8.649.02-24.65.03-24.65.03-33.939-6.411-2-3-2-3-2-8h-32v5c-4.223 5.721-9.88 7.153-16.546 8.523-4.382.605-8.677.659-13.095.68l-2.794.017q-2.92.014-5.84.02c-2.952.01-5.902.041-8.854.072q-2.85.01-5.7.016l-2.636.038c-7.434-.027-15.023-1.196-21.16-5.678C33 248 33 248 32.625 244.688L33 242l-2.012.105c-9.003.276-9.003.276-12.988-3.105-3.016-3.273-3.377-5.49-3.388-9.894l-.03-3.653.014-3.999-.02-4.219c-.019-3.818-.018-7.636-.012-11.455.003-3.19-.003-6.381-.009-9.572q-.02-11.296-.001-22.594c.011-7.76-.003-15.518-.03-23.278q-.032-10.002-.022-20.005.006-5.97-.017-11.94-.021-5.618.008-11.238c.005-2.02-.01-4.042-.024-6.064.058-7.146.536-12.074 4.531-18.089 3.792-2.528 6.809-2.224 11.188-2.125l2.271.027c1.847.024 3.694.06 5.541.098l-.105-2.23c-.27-9.697-.27-9.697 3.105-13.77l1.207-1.52C44.33 60.844 46.542 58.33 49 56l-1-2c-.43-3.872-.317-5.525 1.875-8.812C52 43 52 43 54 42q3.468-.038 6.938-.062C69.224 41.607 73.753 38.374 80 33a247 247 0 0 1 5.438-4l2.37-1.75C90 26 90 26 94 26c-.01-.585-.02-1.17-.032-1.772-.041-2.66-.067-5.319-.093-7.978-.017-.92-.034-1.84-.05-2.79l-.02-2.694-.032-2.476C94.029 5.712 94.602 4.174 96 2c3.164-2.11 4.265-2.344 7.938-2.437" fill="#311906"/><path d="m97.626 42.88 3.546.006h1.951c2.138 0 4.275.009 6.412.016l4.435.005q5.847.006 11.694.024 5.962.014 11.924.02 11.706.016 23.412.049c.75 2.822 1.067 5.142.938 8.063-.293 3.992-.293 3.992 2.062 6.937 1.786.03 3.575.043 5.359-.041 11.806-.449 18.502 5.004 27.01 12.636 1.788 1.598 1.788 1.598 4.631 3.405 3.214 30.339-.414 64.117-1 94H56l-1-51c-.71-17.11-.71-17.11-1.5-34.215.32-5.63.766-8.516 4.77-12.524 3.15-2.706 6.486-5.028 10.024-7.197 1.85-1.109 1.85-1.109 3.952-2.85 3.364-2.328 7.93-1.69 11.91-1.741 3.089-.098 5.522-.32 8.332-1.653 2.112-2.542 1.884-4.19 1.7-7.445A176 176 0 0 1 94 44c1-1 1-1 3.626-1.12" fill="#4F361C"/><path d="M32 97h8l1 84c3.856.964 6.853 1.128 10.808 1.134l2.072.007q3.436.007 6.872.004l4.928.01q6.69.013 13.382.012 5.58.002 11.162.008 13.158.012 26.318.01 13.592.001 27.184.026 11.66.019 23.32.018 6.968-.002 13.937.013 6.548.014 13.095.003 2.407-.003 4.816.007c2.184.008 4.368.003 6.552-.005l3.711.002c2.976.046 2.976.046 4.843-2.249.217-2.648.311-5.195.319-7.846l.03-2.454c.031-2.684.048-5.368.065-8.052q.028-2.787.059-5.574c.051-4.895.09-9.791.128-14.687.04-4.994.091-9.987.141-14.98q.144-14.704.258-29.407h9v129l-11 1 3.313 4.188c6.457 8.378 6.457 8.378 7.25 13.312-.563 3.5-.563 3.5-2.938 6.25-6.89 4.925-15.334 5.707-23.55 5.648l-2.757.01q-2.865.002-5.73-.017c-2.883-.016-5.765 0-8.649.02-24.65.03-24.65.03-33.939-6.411-2-3-2-3-2-8h-32v5c-4.223 5.721-9.88 7.153-16.546 8.523-4.382.605-8.677.659-13.095.68l-2.794.017q-2.92.014-5.84.02c-2.952.01-5.902.041-8.854.072q-2.85.01-5.7.016l-2.636.038c-7.415-.027-14.996-1.213-21.16-5.616C33 248 33 248 32.609 244.723c.46-4.384 1.721-6.472 4.266-10.036l2.18-3.113C41 229 41 229 43 227l-11-1z" fill="#4A2507"/><path d="m97.626 42.88 3.546.006h1.951c2.138 0 4.275.009 6.412.016l4.435.005q5.847.006 11.694.024 5.962.014 11.924.02 11.706.016 23.412.049c.75 2.822 1.067 5.142.938 8.063-.293 3.992-.293 3.992 2.062 6.937 1.786.03 3.575.043 5.359-.041 11.806-.449 18.502 5.004 27.01 12.636 1.788 1.598 1.788 1.598 4.631 3.405.367 1.866.367 1.866.356 4.158l.01 2.599-.038 2.81-.006 2.876q-.01 3.012-.04 6.025c-.032 3.085-.042 6.17-.048 9.257l-.03 5.841-.014 2.816-.029 2.589-.02 2.29C201 117 201 117 200 118c-1.343.086-2.69.107-4.035.098l-2.207-.008-2.82-.027L182 118l-1-29c-3.563-1.781-4.824-2.263-8.547-2.414l-2.558-.117-2.645-.094-2.691-.117Q161.28 86.117 158 86l-.008-2.598-.117-3.464-.07-3.41C156.732 71.825 154.842 68.945 151 66c-3.486-1.01-6.826-.983-10.437-.93l-3.026-.02q-3.156-.007-6.313.037c-3.215.038-6.423 0-9.638-.044q-3.075.007-6.148.027c-1.435-.02-1.435-.02-2.899-.043-5.1.117-5.1.117-9.49 2.47-3.571 3.983-4.811 6.965-4.924 12.44l-.117 3.465L98 86l-1.88.076q-4.217.176-8.432.362l-2.96.119-2.841.127-2.619.11c-2.433.133-2.433.133-5.268 1.206l-1 29H55c-.347-5.915-.644-11.795-.824-17.712a216 216 0 0 0-.308-6.011c-1.028-16.174-1.028-16.174 2.588-21.369 3.506-3.626 7.491-6.369 11.837-8.896 1.858-1.05 1.858-1.05 3.953-2.786 3.356-2.345 7.929-1.703 11.91-1.753 3.089-.098 5.522-.32 8.332-1.653 2.112-2.542 1.884-4.19 1.7-7.445A176 176 0 0 1 94 44c1-1 1-1 3.626-1.12" fill="#795421"/><path d="M32 97h8l.018 3.176q.086 14.789.218 29.577.07 7.604.11 15.207.04 7.334.117 14.667.025 2.803.035 5.605c.01 2.61.037 5.22.07 7.83l-.005 2.358c.007 2.37.007 2.37.437 5.58 4.484 2.99 8.653 2.623 14 3v14l3 1 1.28 2.03c1.613 2.264 1.613 2.264 4.62 2.478l3.61.011 2.013.023c2.23.02 4.459.012 6.689.004q2.394.014 4.79.031c4.338.028 8.676.031 13.015.03 4.532.004 9.064.03 13.597.052 8.585.041 17.17.061 25.754.074 9.773.016 19.545.055 29.318.095 20.104.083 40.21.136 60.314.172v20c-10.438.746-15.893-.197-24.746-5.371-8.105-4.057-19.706-3.886-28.426-1.91-4.263 1.46-7.3 2.818-10.727 5.823-5.025 3.596-10.301 3.195-16.28 3.157l-3.538.022q-3.694.012-7.388-.014c-3.751-.02-7.5.02-11.25.064q-3.6.001-7.2-.01l-3.372.047c-6.72-.1-10.82-1.177-16.157-5.34-7.974-6.113-19.387-5.42-28.916-4.468-5.851 1.186-10.834 2.814-15.375 6.75C46 225 46 225 32 225z" fill="#A16F2D"/><path d="M215 97h9v128h-14v-1h13v-20l-6.123.034q-28.518.152-57.036.225c-9.775.026-19.55.061-29.325.118q-12.779.076-25.556.093c-4.512.007-9.024.022-13.535.059q-6.368.05-12.736.037-2.338 0-4.677.03c-2.128.025-4.253.019-6.38.005l-3.61.014C60.1 203.817 59.194 202.24 57 199l-2-1v-14H44l-1-2 2.634.006q31.684.066 63.367.098 15.322.014 30.644.047 13.35.03 26.7.037 7.073.003 14.145.023 6.651.02 13.302.015 2.447 0 4.893.012c2.22.01 4.439.008 6.659.003l3.77.005c3.014.055 3.014.055 4.886-2.246.217-2.648.311-5.195.319-7.846l.03-2.454c.031-2.684.048-5.368.065-8.052q.028-2.787.059-5.574c.051-4.895.09-9.791.128-14.687.04-4.994.091-9.987.141-14.98q.144-14.704.258-29.407" fill="#785425"/><path d="m209 223 1 1c2.35.235 4.706.414 7.063.563l3.91.253L224 225v1l-11 1 3.313 4.188c6.457 8.378 6.457 8.378 7.25 13.312-.563 3.5-.563 3.5-2.938 6.25-6.89 4.925-15.334 5.707-23.55 5.648l-2.757.01q-2.865.002-5.73-.017c-2.883-.016-5.765 0-8.649.02-24.65.03-24.65.03-33.939-6.411-2.564-3.846-2.51-5.41-2-10 3.4-9.047 3.4-9.047 7.172-11.293L153 228v-3c17.243-14.18 37.443-12.333 56-2" fill="#4A2507"/><path d="M225 117h16q.176 22.922.26 45.845c.025 7.096.06 14.192.117 21.287.055 6.847.084 13.694.097 20.541q.015 3.92.055 7.84c.036 3.658.04 7.315.039 10.974l.054 3.278c-.056 8.2-.056 8.2-2.97 11.892-3.984 3.52-7.895 4.041-13.082 4.019-4.36-1.147-5.868-4.341-8.097-8.051L216 232q-1.198-1.825-2.437-3.625L212 226l12-1zm-210 0h16l1 108 12 1a559 559 0 0 1-4.371 6.531c-1.62 2.376-1.62 2.376-2.79 4.625-1.142 1.998-2.047 3.392-3.839 4.844-4.63 1.05-8.594.598-12.937-1.25-2.82-2.392-4.84-4.34-5.432-8.085l.008-2.626-.012-3.025.032-3.3v-3.49c.001-3.809.025-7.618.048-11.427q.009-3.96.013-7.92c.01-6.24.034-12.48.064-18.72.033-7.105.05-14.21.065-21.316.031-14.614.085-29.227.151-43.841" fill="#261306"/><path d="m53.104 56.865 2.487.06c1.322.05 1.322.05 2.67.098l2.746.076c2.894.082 5.787.18 8.68.276l5.885.172Q82.787 57.759 90 58v1l-3.008-.168C74.77 58.612 68.773 62.915 60 71l-2.143 1.06c-3.135 3.275-2.46 7.281-2.466 11.64l-.05 2.879c-.05 3.036-.07 6.072-.091 9.109q-.042 3.086-.09 6.173c-.074 5.047-.123 10.092-.16 15.139H41q.161 12.27.34 24.539.083 5.697.157 11.394.072 5.494.156 10.99.031 2.1.056 4.198.038 2.934.086 5.869l.047 3.378c-.016 2.61-.016 2.61 1.158 4.632l-3-1V97h-8v128h-1V117H15c-.108-4.167-.188-8.332-.25-12.5l-.102-3.555C14.568 93.796 15.016 89.02 19 83c3.792-2.528 6.809-2.224 11.187-2.125l2.272.027c1.847.024 3.694.06 5.541.098l-.105-2.23c-.27-9.697-.27-9.697 3.105-13.77l1.207-1.555c3.23-4.077 5.55-6.745 10.897-6.58" fill="#482407"/><path d="M163 57q9.233-.185 18.47-.275 3.139-.037 6.279-.102c3.013-.061 6.026-.09 9.04-.111l2.823-.078c4.385-.002 7.403.094 10.882 2.932 5.17 5.434 7.658 8.71 7.569 16.322l-.028 3.011L218 81l3.324-.176q2.182-.07 4.363-.136l2.186-.127c4.081-.094 5.664.086 9.022 2.646 3.48 4.616 4.357 8.221 4.3 13.969l-.02 3.506-.05 3.63-.027 3.69c-.024 3-.06 5.999-.098 8.998h-16v108h-1V97h-9v20h-14V74l-4-2a270 270 0 0 1-6.562-5c-6.053-5.249-6.053-5.249-13.45-7.414l-2.295-.117-2.38-.094-2.417-.117A891 891 0 0 0 164 59z" fill="#462306"/><path d="M203.02 228.285c4.698 3.675 8.134 8.503 10.98 13.715v2q-3.057 1.013-6.125 2l-3.445 1.125C201 248 201 248 195 248l-2-12-5-1c-1.313 1.086-1.313 1.086-1.098 3.723l.036 3.34L187 248h-13l.035-3.027.028-3.91.035-3.903c.267-3.023.267-3.023-1.098-4.16h-5l-3 13c-8.625-.75-8.625-.75-12-3 0-5.814 2.956-8.915 6.742-12.945 11.359-10.337 30.801-9.71 43.278-1.77M92 227c4.44 3.209 8.944 6.791 11 12-.312 2.813-.312 2.813-1 5-3.823 1.423-6.913 2.24-11 2-1.284-2.569-1.33-4.766-1.562-7.625l-.254-3.04L89 233l-7-1v16H69v-12l-6-2-2 14c-5.077 0-8.215-.054-12.875-1.312l-2.867-.739L43 245l-1-3c4.636-8.739 10.683-14.612 20-18 9.88-2.436 21.144-2.332 30 3" fill="#9F6E2C"/><path d="M56 75h40v9l-4.05.113q-2.632.099-5.263.2l-2.67.068-2.568.107-2.364.08c-2.705.56-3.55 1.126-5.085 3.432-.508 3.097-.508 3.097-.512 6.637l-.107 3.935-.069 4.115q-.05 2.076-.103 4.15A1632 1632 0 0 0 73 117H56z" fill="#A2712D"/><path d="M127.438 83.813C130 84 130 84 132 86c.258 1.973.258 1.973.271 4.418l.031 2.77.007 3 .076 6.242q.044 4.938.071 9.876c.022 3.169.061 6.337.103 9.507v2.998l.04 2.771.016 2.445L133 132l3 2v2l3.25.75c3.868 1.29 5.049 2.369 7.75 5.25 2.632 1.254 2.632 1.254 5 2v2l1.938.688C156 148 156 148 156.813 150.563L157 153c-1 1-1 1-4.187 1.313-4.417-.362-6.434-1.511-9.813-4.313v-2l-2-.75a146 146 0 0 1-7.25-3.25l-2.078-1C130 142 130 142 129 140c-2.882.96-4.742 1.734-6.875 3.938-2.244 2.177-4.307 3.088-7.2 4.203-2.179.972-4.016 2.205-5.987 3.547-3.428 2.23-5.78 2.832-9.938 2.312-.375-2.687-.375-2.687 0-6 3.197-3.27 5.62-4.978 10-6l1.813-2c2.917-2.668 5.324-2.703 9.187-3v-2l3-2c.469-2.127.469-2.127.417-4.617l.05-2.902.01-3.141c.015-1.06.03-2.12.047-3.213.047-3.396.075-6.793.101-10.19q.054-5.1.123-10.2.04-3.179.063-6.357l.031-2.892.02-2.559c.21-2.922.642-2.89 3.576-3.117" fill="#AB8F72"/><path d="M160 75h40v41h-16l-.078-5.547q-.084-3.6-.172-7.203l-.043-3.656-.098-3.516-.063-3.237c-.668-3.478-1.825-4.647-4.546-6.841-3.3-1.65-6.991-1.383-10.625-1.562l-2.43-.131Q162.973 84.148 160 84z" fill="#A3712D"/><path d="M186 41c2.565.06 5.124.147 7.688.25l2.185.043c4.908.224 7.546 1.064 11.127 4.707 1.386 2.771 1.188 4.933 1 8-2 3-2 3-3.888 3.677-3.47.53-6.953.507-10.456.526l-2.442.017q-2.553.014-5.104.02c-2.6.01-5.2.041-7.801.072q-2.483.01-4.965.016l-2.352.038c-3.281-.014-5.592-.141-8.482-1.765-1.865-1.978-2.024-2.914-1.947-5.601l.003-2.062c.57-2.543 1.385-3.34 3.434-4.938 2.36-.34 2.36-.34 5.105-.293l2.979.03 3.103.075 3.14.042q3.837.053 7.673.146zm-124.437.875 2.115-.012c5.195.01 5.195.01 6.322 1.137a88 88 0 0 0 4.91.316l2.998.127 3.154.12 3.167.13q3.885.16 7.771.307v2l3 1c.365 7.427.365 7.427-1.023 9.605-3.066 2.163-6.283 1.803-9.899 1.758l-2.358.002a573 573 0 0 1-4.943-.029c-2.504-.023-5.007-.02-7.511-.014q-2.407-.008-4.813-.021l-2.248.003C57.464 58.24 53.47 57.63 49 56c-1.427-2.853-1.31-4.835-1-8 3.952-5.927 6.798-6.163 13.563-6.125" fill="#010000"/><path d="M103 226h49c-2 4-2 4-3.437 6.313a54 54 0 0 0-3.16 6.355L144 242q-6.753.185-13.507.275-2.298.037-4.595.102c-2.202.06-4.402.09-6.605.111l-2.074.078c-1.94.002-1.94.002-5.219-.566-1.938-2.43-2.83-4.56-3.937-7.437-1.267-3.289-1.267-3.289-5.063-8.563" fill="#261306"/><path d="m115.242 64.266 3.034-.03q3.174-.016 6.35.002c3.232.012 6.459-.04 9.69-.097q3.089-.006 6.176 0l2.917-.062c6.528.112 6.528.112 9.575 2.432C155.624 69.439 157 70.97 157 75H99c3.793-9.482 6.472-10.773 16.242-10.734" fill="#3F2B16"/><path d="M154.652-.434C157 0 157 0 159.562 1.875c2.136 3.157 2.566 4.884 2.57 8.66l.005 2.701-.012 2.826.012 2.838-.004 2.698-.004 2.484C162 26 162 26 161 27c-2.843.1-5.657.139-8.5.125l-2.418.012c-5.955-.01-5.955-.01-7.082-1.137-.307-3.408-.278-6.83-.312-10.25l-.088-2.895c-.04-4.345.001-7.123 2.107-10.992 3.393-2.757 5.728-2.502 9.945-2.297m-50.714-.003 2.59-.122C109 0 109 0 111.296 1.855c2.497 4.611 2.172 8.741 2.016 13.895l-.03 2.941c-.115 7.14-.115 7.14-1.283 8.309-2.843.1-5.657.139-8.5.125l-2.418.012c-5.955-.01-5.955-.01-7.082-1.137-.251-3.263-.185-6.54-.187-9.812l-.038-2.776-.005-2.682-.013-2.456C94.031 5.714 94.613 4.163 96 2c3.164-2.11 4.265-2.344 7.938-2.437" fill="#261306"/><path d="M145 90h20c1.573 3.145 1.226 6.488 1.25 9.938l.063 2.208c.039 5.389.039 5.389-1.829 7.858L163 111c-2.437-.812-2.437-.812-5-2-1.158-3.473-1.069-6.36-1-10l-2.117-.148-2.758-.227c-.905-.07-1.81-.14-2.742-.21C147 98 147 98 145 96z" fill="#2B1608"/><path d="M95.844 89.77q2.328.006 4.656.043l2.379.001c5.84.046 5.84.046 8.121 1.186.125 2.375.125 2.375 0 5-2.298 2.298-2.949 2.297-6.062 2.563-3.705-.004-3.705-.004-4.938 1.437-.451 2.284-.835 4.573-1.207 6.871C98 109 98 109 95.926 110.285L94 111c-1.977-1.523-1.977-1.523-4-4-.346-2.705-.473-4.941-.375-7.625l.004-2.062c.097-5.445.396-7.195 6.215-7.543" fill="#291607"/><path d="M82 232h5l-1.984 1.61c-2.592 3.073-2.438 4.683-2.266 8.64l.11 3.266L83 248h-1c-1.328-5.312-1.747-10.759 0-16" fill="#6A4015"/><path d="m101.285 96.902 2.778.035 2.785.028L109 97v1l-6.152.684c-1.86.135-1.86.135-2.848 1.316a236 236 0 0 0-1 7h-1q-.04-2.22-.062-4.437l-.036-2.497c.14-2.94.439-3.038 3.383-3.164" fill="#341E0C"/><path d="M170.563 231.938 173 232l-1.875 1.813c-2.262 2.195-2.262 2.195-4.125 5.187-.043-2-.04-4 0-6 1-1 1-1 3.563-1.062" fill="#603710"/><path d="M118 133h5l-1 2h-2v2l-5 1 1-2h2z" fill="#7B6144"/></svg>